<svg xmlns="http://www.w3.org/2000/svg" data-name="Donuts Chart" viewBox="0 0 24 24"><path d="M19.64 12.61h-5.47a.51.51 0 00-.5.5 2.92 2.92 0 11-2.92-2.92.5.5 0 00.5-.5V4.22a.5.5 0 00-.5-.5 9.39 9.39 0 109.41 9.39.5.5 0 00-.52-.5zm-8.89 8.89a8.39 8.39 0 01-.5-16.76v4.48a3.89 3.89 0 00-3.42 3.89 3.92 3.92 0 007.81.5h4.48a8.4 8.4 0 01-8.37 7.89z"/><path d="M13 1.5a.5.5 0 00-.5.5v5.47A.51.51 0 0013 8a2.93 2.93 0 012.93 2.92.5.5 0 00.5.5h5.46a.5.5 0 00.5-.5A9.4 9.4 0 0013 1.5zm3.9 8.89A3.94 3.94 0 0013.47 7V2.52a8.4 8.4 0 017.88 7.87z"/></svg>